<?xml version="1.0" encoding="iso-8859-1"?>
<!-- Generator: Adobe Illustrator 19.0.0, SVG Export Plug-In . SVG Version: 6.00 Build 0)  -->
<svg version="1.1" id="Capa_1" xmlns="http://www.w3.org/2000/svg" xmlns:xlink="http://www.w3.org/1999/xlink" x="0px" y="0px"
	 viewBox="0 0 511.999 511.999" style="enable-background:new 0 0 511.999 511.999;" xml:space="preserve">
<g>
	<g>
		<path d="M472.413,105.566H424.11l-29.364-48.937c-0.029-0.048-0.063-0.091-0.092-0.138c-0.085-0.134-0.172-0.264-0.264-0.393
			c-0.068-0.095-0.137-0.188-0.208-0.278c-0.082-0.105-0.168-0.208-0.256-0.309c-0.089-0.101-0.177-0.2-0.27-0.296
			c-0.08-0.084-0.164-0.165-0.248-0.245c-0.103-0.098-0.207-0.195-0.315-0.287c-0.087-0.074-0.176-0.145-0.265-0.215
			c-0.109-0.085-0.22-0.169-0.332-0.248c-0.103-0.072-0.208-0.139-0.313-0.206c-0.105-0.067-0.21-0.132-0.318-0.193
			c-0.124-0.07-0.25-0.135-0.377-0.198c-0.095-0.048-0.191-0.095-0.288-0.138c-0.141-0.063-0.286-0.121-0.431-0.176
			c-0.092-0.035-0.183-0.069-0.274-0.1c-0.148-0.05-0.299-0.094-0.452-0.136c-0.098-0.027-0.196-0.053-0.295-0.076
			c-0.143-0.033-0.288-0.061-0.433-0.087c-0.117-0.021-0.236-0.039-0.355-0.055c-0.127-0.016-0.255-0.029-0.384-0.039
			c-0.145-0.012-0.29-0.019-0.436-0.022c-0.061-0.002-0.122-0.009-0.183-0.009H229.611c-0.058,0-0.112,0.007-0.17,0.009
			c-0.155,0.004-0.309,0.011-0.463,0.023c-0.119,0.009-0.238,0.022-0.357,0.036c-0.128,0.016-0.256,0.036-0.384,0.059
			c-0.136,0.024-0.272,0.051-0.406,0.081c-0.107,0.025-0.214,0.053-0.322,0.082c-0.144,0.04-0.287,0.081-0.428,0.129
			c-0.099,0.033-0.197,0.071-0.295,0.108c-0.139,0.053-0.276,0.108-0.411,0.168c-0.103,0.046-0.204,0.096-0.305,0.147
			c-0.123,0.061-0.244,0.124-0.363,0.191c-0.111,0.063-0.219,0.13-0.326,0.198c-0.103,0.065-0.206,0.131-0.307,0.202
			c-0.113,0.08-0.225,0.164-0.335,0.251c-0.09,0.07-0.178,0.14-0.264,0.213c-0.107,0.092-0.211,0.188-0.314,0.286
			c-0.086,0.081-0.169,0.163-0.251,0.248c-0.091,0.095-0.179,0.193-0.266,0.293c-0.089,0.102-0.175,0.206-0.259,0.312
			c-0.071,0.09-0.139,0.182-0.206,0.276c-0.092,0.128-0.18,0.26-0.265,0.394c-0.029,0.048-0.063,0.09-0.092,0.138l-29.364,48.937
			h-72.055V81.815c0-4.373-3.544-7.917-7.917-7.917h-63.34c-4.373,0-7.917,3.545-7.917,7.917v23.751h-2.641
			C17.759,105.566,0,123.325,0,145.153v274.474c0,21.829,17.759,39.587,39.587,39.587h432.825c21.829,0,39.587-17.759,39.587-39.587
			V145.153C512,123.325,494.241,105.566,472.413,105.566z M58.063,89.732h47.505v15.834H58.063V89.732z M472.413,443.38h-351.01
			V145.154c0-4.373-3.544-7.917-7.917-7.917c-4.373,0-7.917,3.545-7.917,7.917V443.38H39.587c-13.097,0-23.752-10.655-23.752-23.752
			v-55.952h23.754c4.373,0,7.917-3.545,7.917-7.917c0-4.373-3.544-7.917-7.917-7.917H15.835v-26.128h23.754
			c4.373,0,7.917-3.545,7.917-7.917c0-4.373-3.544-7.917-7.917-7.917H15.835v-26.13h23.754c4.373,0,7.917-3.545,7.917-7.917
			c0-4.373-3.544-7.917-7.917-7.917H15.835v-26.128h23.754c4.373,0,7.917-3.545,7.917-7.917c0-4.373-3.544-7.917-7.917-7.917H15.835
			v-76.799c0-13.097,10.656-23.752,23.752-23.752h158.331c0.005,0,0.01,0.001,0.015,0.001c0.018,0,0.034-0.003,0.051-0.003
			c0.298-0.002,0.59-0.023,0.878-0.056c0.081-0.01,0.162-0.025,0.243-0.037c0.234-0.035,0.465-0.078,0.693-0.133
			c0.079-0.02,0.159-0.04,0.238-0.062c0.244-0.067,0.482-0.145,0.716-0.234c0.056-0.021,0.111-0.038,0.165-0.06
			c0.289-0.117,0.568-0.248,0.838-0.396c0.046-0.026,0.091-0.057,0.137-0.084c0.213-0.124,0.422-0.256,0.623-0.399
			c0.088-0.062,0.172-0.127,0.258-0.193c0.168-0.13,0.33-0.267,0.487-0.41c0.072-0.065,0.146-0.128,0.217-0.197
			c0.217-0.211,0.421-0.434,0.611-0.67c0.039-0.048,0.073-0.099,0.111-0.148c0.164-0.213,0.317-0.435,0.46-0.663
			c0.022-0.035,0.048-0.065,0.07-0.1l29.364-48.937h149.382l29.364,48.937c0.022,0.036,0.048,0.065,0.069,0.1
			c0.143,0.229,0.297,0.451,0.462,0.663c0.037,0.048,0.071,0.1,0.11,0.148c0.191,0.235,0.395,0.458,0.611,0.67
			c0.07,0.069,0.144,0.131,0.216,0.197c0.157,0.143,0.319,0.28,0.487,0.41c0.086,0.066,0.17,0.131,0.258,0.193
			c0.201,0.143,0.408,0.275,0.623,0.399c0.046,0.027,0.091,0.058,0.137,0.084c0.269,0.149,0.55,0.279,0.837,0.396
			c0.055,0.022,0.111,0.04,0.166,0.06c0.234,0.089,0.472,0.167,0.716,0.234c0.079,0.022,0.159,0.042,0.238,0.062
			c0.228,0.055,0.459,0.098,0.693,0.133c0.081,0.012,0.162,0.027,0.243,0.037c0.289,0.033,0.58,0.054,0.878,0.056
			c0.016,0,0.033,0.003,0.05,0.003c0.005,0,0.01-0.001,0.016-0.001h52.762c13.097,0,23.752,10.655,23.752,23.752v274.473h0.002
			C496.165,432.725,485.509,443.38,472.413,443.38z"/>
	</g>
</g>
<g>
	<g>
		<path d="M308.771,179.462c-59.665,0-108.205,48.541-108.205,108.205s48.541,108.205,108.205,108.205
			s108.205-48.541,108.205-108.205C416.976,228.002,368.435,179.462,308.771,179.462z M308.771,380.037
			c-50.934,0-92.37-41.437-92.37-92.37s41.437-92.37,92.37-92.37c50.934,0,92.37,41.437,92.37,92.37
			S359.704,380.037,308.771,380.037z"/>
	</g>
</g>
<g>
	<g>
		<path d="M353.722,250.866c-6.751-6.752-15.727-10.47-25.275-10.47c-7.102,0-13.889,2.058-19.677,5.89
			c-5.791-3.832-12.576-5.89-19.678-5.89c-9.546,0-18.523,3.717-25.277,10.471c-13.931,13.939-13.931,36.617,0.002,50.554
			l39.356,39.352c1.545,1.546,3.572,2.319,5.598,2.319s4.052-0.773,5.599-2.319l39.351-39.352
			c6.753-6.752,10.474-15.73,10.474-25.278C364.195,266.594,360.474,257.617,353.722,250.866z M342.524,290.223l-33.753,33.754
			l-33.758-33.753c-7.761-7.763-7.76-20.398-0.001-28.161c3.762-3.761,8.762-5.832,14.079-5.832c5.319,0,10.32,2.072,14.082,5.833
			c3.091,3.091,8.103,3.09,11.196-0.002c3.76-3.76,8.759-5.831,14.077-5.831s10.317,2.071,14.078,5.832
			c3.763,3.761,5.835,8.761,5.835,14.079C348.36,281.46,346.288,286.461,342.524,290.223z"/>
	</g>
</g>
<g>
	<g>
		<path d="M384.754,110.543l-8.445-21.111c-0.007-0.017-0.016-0.031-0.022-0.048c-0.07-0.171-0.149-0.336-0.231-0.5
			c-0.037-0.075-0.07-0.153-0.109-0.226c-0.071-0.135-0.152-0.263-0.231-0.393c-0.059-0.097-0.114-0.198-0.177-0.293
			c-0.056-0.083-0.118-0.159-0.175-0.239c-0.096-0.132-0.19-0.266-0.293-0.39c-0.023-0.028-0.049-0.054-0.073-0.083
			c-0.307-0.362-0.64-0.697-1.002-0.995c-0.031-0.026-0.065-0.048-0.097-0.073c-0.164-0.13-0.329-0.258-0.502-0.375
			c-0.183-0.125-0.376-0.239-0.571-0.348c-0.023-0.013-0.045-0.029-0.068-0.042c-0.415-0.228-0.856-0.415-1.312-0.566
			c-0.029-0.01-0.058-0.022-0.088-0.032c-0.158-0.05-0.322-0.089-0.483-0.129c-0.092-0.023-0.181-0.051-0.273-0.07
			c-0.115-0.025-0.234-0.039-0.352-0.059c-0.145-0.024-0.29-0.051-0.436-0.067c-0.087-0.009-0.174-0.011-0.261-0.018
			c-0.18-0.013-0.361-0.026-0.542-0.027c-0.018,0-0.035-0.003-0.053-0.003H248.612c-0.016,0-0.03,0.002-0.045,0.002
			c-0.195,0.002-0.389,0.014-0.581,0.029c-0.074,0.006-0.148,0.008-0.222,0.015c-0.163,0.017-0.324,0.046-0.484,0.074
			c-0.101,0.018-0.204,0.03-0.304,0.051c-0.111,0.024-0.221,0.056-0.33,0.085c-0.144,0.037-0.289,0.07-0.429,0.114
			c-0.053,0.016-0.103,0.039-0.155,0.057c-0.192,0.065-0.381,0.132-0.567,0.211c-0.01,0.005-0.021,0.01-0.031,0.015
			c-0.222,0.096-0.439,0.2-0.649,0.315c-0.052,0.028-0.099,0.062-0.149,0.091c-0.166,0.096-0.332,0.192-0.491,0.299
			c-0.183,0.123-0.357,0.257-0.529,0.396c-0.023,0.019-0.048,0.035-0.071,0.053c-0.36,0.297-0.692,0.63-0.999,0.992
			c-0.025,0.029-0.053,0.056-0.077,0.087c-0.102,0.124-0.195,0.256-0.289,0.387c-0.06,0.081-0.123,0.159-0.178,0.243
			c-0.062,0.093-0.117,0.193-0.176,0.29c-0.079,0.131-0.161,0.26-0.233,0.395c-0.038,0.073-0.071,0.151-0.108,0.226
			c-0.081,0.164-0.161,0.329-0.231,0.5c-0.006,0.017-0.014,0.032-0.022,0.048l-8.445,21.111c-1.625,4.061,0.349,8.668,4.409,10.293
			c0.965,0.386,1.96,0.569,2.939,0.569c3.141,0,6.114-1.883,7.354-4.979l6.455-16.134h109.622l6.455,16.134
			c1.239,3.096,4.211,4.979,7.354,4.979c0.979,0,1.974-0.183,2.939-0.569C384.404,119.211,386.378,114.603,384.754,110.543z"/>
	</g>
</g>
<g>
	<g>
		<path d="M456.582,137.237c-13.101,0-23.759,10.658-23.759,23.759c0,13.1,10.658,23.759,23.759,23.759s23.759-10.658,23.759-23.759
			C480.34,147.895,469.683,137.237,456.582,137.237z M456.582,168.919c-4.369,0-7.924-3.555-7.924-7.924s3.555-7.924,7.924-7.924
			c4.369,0,7.924,3.555,7.924,7.924S460.951,168.919,456.582,168.919z"/>
	</g>
</g>
<g>
	<g>
		<path d="M444.432,253.561c-15.265-60.696-70.295-105.769-135.662-105.769c-77.127,0-139.875,62.748-139.875,139.875
			s62.748,139.875,139.875,139.875c65.366,0,120.397-45.073,135.662-105.77c17.182-1.854,30.605-16.44,30.605-34.105
			C475.037,270,461.615,255.414,444.432,253.561z M308.771,411.707c-68.396,0-124.04-55.644-124.04-124.04
			s55.644-124.04,124.04-124.04c59.615,0,109.535,42.275,121.373,98.419c0.004,0.056,0.003,0.111,0.008,0.167
			c0.06,0.587,0.188,1.15,0.365,1.689c1.5,7.694,2.294,15.638,2.294,23.765C432.811,356.063,377.167,411.707,308.771,411.707z
			 M447.595,304.803c0.689-5.617,1.05-11.335,1.05-17.136c0-5.801-0.362-11.519-1.052-17.136
			c6.794,2.732,11.608,9.377,11.608,17.136C459.202,295.426,454.388,302.071,447.595,304.803z"/>
	</g>
</g>
<g>
	<g>
		<path d="M176.826,158.351h-31.67c-4.373,0-7.917,3.545-7.917,7.917c0,4.373,3.544,7.917,7.917,7.917h31.67
			c4.373,0,7.917-3.545,7.917-7.917C184.743,161.895,181.199,158.351,176.826,158.351z"/>
	</g>
</g>
<g>
</g>
<g>
</g>
<g>
</g>
<g>
</g>
<g>
</g>
<g>
</g>
<g>
</g>
<g>
</g>
<g>
</g>
<g>
</g>
<g>
</g>
<g>
</g>
<g>
</g>
<g>
</g>
<g>
</g>
</svg>
